<svg xmlns="http://www.w3.org/2000/svg" width="1920" height="1080" viewBox="0 0 1920 1080">
  <g id="desktop-background" transform="translate(-244.047 -398.181)" opacity="0.049">
    <path id="path4772" d="M244.047,398.181v22.659c12.321-5.671,21.212-13.469,25.166-22.659Zm82.939,0c10.145,28.574-32.923,58.481-82.939,63.644v24.686a120.36,120.36,0,0,1,21.328,4.136c82.9,24.956,157.424-16.963,113.057-63.594-8.919-9.374-10.645-19.324-7.529-28.872H326.987Zm116.748,0c-19.486,13.4-24.626,33.883-4.072,55.486,38.924,40.911-54.242,93.317-126.973,71.422-24.614-7.41-48.4-8.817-68.642-6.064V690.84c27.589-12.7,38.2-36.26,14.385-61.287-38.924-40.911,54.213-93.3,126.943-71.406,82.9,24.956,157.424-16.963,113.057-63.594-38.924-40.911,54.213-93.3,126.943-71.406,58.278,17.544,112.239,1.989,123.838-24.966H443.735Zm363.252,0c13.588,38.272-68.531,79.207-134.3,59.409-82.9-24.956-157.394,16.946-113.027,63.578,38.924,40.911-54.242,93.317-126.973,71.422-82.9-24.956-157.394,16.946-113.027,63.578,30.006,31.538-18.5,69.763-75.615,75.657v24.686a120.361,120.361,0,0,1,21.328,4.136c82.9,24.956,157.424-16.963,113.057-63.594-38.924-40.911,54.213-93.3,126.943-71.406,82.9,24.956,157.424-16.963,113.057-63.594-23.779-24.992-.993-54.772,54.756-71.554,29.173-8.782,42.612-8.755,72.187.149,82.9,24.956,157.424-16.963,113.057-63.594-8.919-9.374-10.645-19.324-7.529-28.872H806.987Zm116.748,0c-19.486,13.4-24.626,33.883-4.072,55.486,38.924,40.911-54.242,93.317-126.973,71.422-82.9-24.956-157.394,16.946-113.027,63.578,38.924,40.911-54.242,93.317-126.972,71.422-82.9-24.956-157.394,16.946-113.027,63.578,38.924,40.911-54.242,93.317-126.973,71.422-24.614-7.41-48.4-8.817-68.643-6.064V960.84c27.589-12.7,38.2-36.26,14.385-61.287-38.924-40.911,54.213-93.3,126.943-71.406,82.9,24.956,157.424-16.963,113.057-63.594-38.924-40.911,54.213-93.3,126.943-71.406,82.9,24.956,157.423-16.963,113.057-63.594-38.924-40.911,54.213-93.3,126.943-71.406,51.449,15.488,110.981,5.059,122.842-21.522,5.43-12.17,1.165-30.562-9.785-42.072-38.924-40.911,54.213-93.3,126.943-71.406,58.278,17.544,112.239,1.989,123.838-24.966H923.735Zm363.252,0c13.588,38.272-68.531,79.207-134.3,59.409-82.9-24.956-157.394,16.946-113.027,63.578,38.925,40.911-54.242,93.317-126.973,71.422-82.9-24.956-157.394,16.946-113.027,63.578,38.924,40.911-54.242,93.317-126.973,71.422-82.9-24.956-157.394,16.946-113.027,63.578,38.924,40.911-54.242,93.317-126.973,71.422-82.9-24.956-157.394,16.946-113.027,63.578,30.006,31.537-18.5,69.763-75.615,75.657v24.686a120.339,120.339,0,0,1,21.328,4.136c82.9,24.956,157.424-16.963,113.057-63.594-38.924-40.911,54.213-93.3,126.943-71.406,82.9,24.956,157.424-16.963,113.057-63.594-23.779-24.992-.993-54.771,54.756-71.554,29.173-8.782,42.612-8.755,72.187.148,82.9,24.956,157.424-16.963,113.057-63.594-38.924-40.911,54.213-93.3,126.943-71.406,82.9,24.956,157.424-16.963,113.057-63.594-38.924-40.911,54.213-93.3,126.943-71.406,82.9,24.956,157.423-16.963,113.057-63.594-8.919-9.374-10.645-19.324-7.529-28.872h-43.916Zm116.748,0c-19.486,13.4-24.626,33.883-4.073,55.486,38.925,40.911-54.242,93.317-126.972,71.422-82.9-24.956-157.394,16.946-113.027,63.578,38.924,40.911-54.242,93.317-126.973,71.422-82.9-24.956-157.394,16.946-113.027,63.578,38.924,40.911-54.242,93.317-126.973,71.422-82.9-24.956-157.394,16.946-113.027,63.578,38.924,40.911-54.242,93.317-126.972,71.422-82.9-24.956-157.394,16.946-113.027,63.578,38.924,40.911-54.242,93.317-126.973,71.422-24.614-7.41-48.4-8.817-68.643-6.064V1230.84c27.589-12.7,38.2-36.26,14.385-61.287-38.924-40.911,54.213-93.3,126.943-71.406,82.9,24.956,157.424-16.963,113.057-63.594-38.924-40.911,54.213-93.3,126.943-71.406,82.9,24.956,157.423-16.963,113.057-63.594-38.924-40.911,54.213-93.3,126.943-71.406,20.463,6.16,53.159,8.559,74.795,5.5,47.256-6.671,65.8-40.158,38.262-69.1-38.924-40.911,54.213-93.3,126.943-71.406,82.9,24.956,157.423-16.963,113.057-63.594-38.924-40.911,54.213-93.3,126.943-71.406,82.9,24.956,157.424-16.963,113.057-63.594-38.925-40.911,54.213-93.3,126.943-71.406,58.278,17.544,112.239,1.989,123.838-24.966H1403.734Zm363.252,0c13.588,38.272-68.531,79.207-134.3,59.409-82.9-24.956-157.394,16.946-113.027,63.578,38.924,40.911-54.242,93.317-126.973,71.422-82.9-24.956-157.394,16.946-113.027,63.578,38.924,40.911-54.242,93.317-126.973,71.422-82.9-24.956-157.394,16.946-113.027,63.578,38.925,40.911-54.242,93.317-126.973,71.422-82.9-24.956-157.394,16.946-113.027,63.578,38.924,40.911-54.242,93.317-126.973,71.422-82.9-24.956-157.394,16.946-113.027,63.578,38.924,40.911-54.242,93.317-126.973,71.422-82.9-24.956-157.394,16.946-113.027,63.578,30.006,31.537-18.5,69.763-75.615,75.657v24.686a120.306,120.306,0,0,1,21.328,4.136c82.9,24.957,157.424-16.963,113.057-63.594-38.924-40.911,54.213-93.3,126.943-71.406,82.9,24.956,157.424-16.963,113.057-63.594-38.924-40.911,54.213-93.3,126.943-71.406,82.9,24.956,157.424-16.963,113.057-63.594-38.924-40.911,54.213-93.3,126.943-71.406,82.9,24.956,157.424-16.963,113.057-63.594-38.924-40.911,54.212-93.3,126.943-71.406,82.9,24.956,157.423-16.963,113.057-63.594-38.924-40.911,54.213-93.3,126.943-71.406,51.449,15.488,110.981,5.059,122.842-21.522,5.43-12.17,1.166-30.562-9.785-42.072-38.924-40.911,54.213-93.3,126.943-71.406,82.9,24.957,157.423-16.963,113.057-63.594-8.919-9.374-10.645-19.324-7.53-28.872h-43.916Zm116.748,0c-19.486,13.4-24.626,33.883-4.072,55.486,38.924,40.911-54.242,93.317-126.973,71.422-82.9-24.956-157.394,16.946-113.027,63.578,38.924,40.911-54.242,93.317-126.973,71.422-82.9-24.956-157.394,16.946-113.027,63.578,38.925,40.911-54.242,93.317-126.973,71.422-82.9-24.956-157.394,16.946-113.027,63.578,38.924,40.911-54.242,93.317-126.973,71.422-82.9-24.956-157.394,16.946-113.027,63.578,38.924,40.911-54.242,93.317-126.973,71.422-82.9-24.956-157.394,16.946-113.027,63.578,38.924,40.911-54.242,93.317-126.973,71.422-82.9-24.956-157.394,16.946-113.027,63.578,38.924,40.911-54.242,93.317-126.973,71.422-24.614-7.41-48.4-8.817-68.643-6.065v149.156h25.166c4.9-11.389,2.4-24.778-10.781-38.628-38.924-40.911,54.213-93.3,126.943-71.406,82.9,24.957,157.423-16.963,113.057-63.594-38.924-40.911,54.213-93.3,126.943-71.406,82.9,24.956,157.424-16.963,113.057-63.594-38.924-40.911,54.213-93.3,126.943-71.406,82.9,24.956,157.423-16.963,113.057-63.594-38.924-40.911,54.213-93.3,126.943-71.406,82.9,24.956,157.424-16.963,113.057-63.594-38.924-40.911,54.213-93.3,126.943-71.406,82.9,24.956,157.423-16.963,113.057-63.594-38.924-40.911,54.213-93.3,126.943-71.406,82.9,24.956,157.424-16.963,113.057-63.594-38.924-40.911,54.212-93.3,126.943-71.406,82.9,24.956,157.424-16.963,113.057-63.594-38.924-40.911,54.213-93.3,126.943-71.406,38.409,11.563,74.855,8.656,98.672-2.307V398.181H1883.735Zm183.955,52.009c-61.643-1.679-104.075,33.089-68.027,70.977,38.924,40.911-54.242,93.317-126.973,71.422-82.9-24.956-157.394,16.946-113.027,63.578,38.925,40.911-54.242,93.317-126.972,71.422-20.463-6.16-53.13-8.575-74.766-5.521-47.256,6.672-65.8,40.158-38.262,69.1,38.924,40.911-54.242,93.317-126.973,71.422-82.9-24.956-157.394,16.946-113.027,63.578,38.924,40.911-54.242,93.317-126.973,71.422-82.9-24.956-157.394,16.946-113.027,63.578,38.925,40.911-54.242,93.317-126.973,71.422-82.9-24.956-157.394,16.946-113.027,63.578,38.924,40.911-54.242,93.317-126.973,71.422-82.9-24.956-157.394,16.946-113.027,63.578,38.924,40.911-54.242,93.317-126.973,71.422-82.9-24.957-157.394,16.946-113.027,63.578a32.874,32.874,0,0,1,7.324,12.014H370.9c10.481-32.124,78.407-59.412,134.473-42.534,82.9,24.957,157.423-16.963,113.057-63.594-38.924-40.911,54.213-93.3,126.943-71.406,82.9,24.957,157.424-16.963,113.057-63.594-38.925-40.911,54.213-93.3,126.943-71.406,82.9,24.956,157.423-16.963,113.057-63.594-38.924-40.911,54.213-93.3,126.943-71.406,82.9,24.956,157.424-16.963,113.057-63.594-38.924-40.911,54.213-93.3,126.943-71.406,82.9,24.956,157.423-16.963,113.057-63.594-38.924-40.911,54.213-93.3,126.943-71.406,82.9,24.956,157.424-16.963,113.057-63.594-38.924-40.911,54.212-93.3,126.943-71.406,82.9,24.956,157.423-16.963,113.057-63.594-35.2-36.993,37.577-83.183,105.615-75.542V461.825c-16.974,1.752-34.694.781-51.357-4.235a172.976,172.976,0,0,0-45-7.4Zm96.357,68.835c-47.934,6.518-75.579,36.856-44.385,69.642,38.925,40.911-54.242,93.317-126.972,71.422-82.9-24.956-157.394,16.946-113.027,63.578,38.924,40.911-54.242,93.317-126.973,71.422-82.9-24.956-157.394,16.946-113.027,63.578,38.925,40.911-54.242,93.317-126.972,71.422-82.9-24.956-157.394,16.946-113.027,63.578,38.924,40.911-54.242,93.317-126.973,71.422-82.9-24.956-157.394,16.946-113.027,63.578,38.924,40.911-54.242,93.317-126.973,71.422-82.9-24.956-157.394,16.946-113.027,63.578,38.925,40.911-54.242,93.317-126.973,71.422-82.9-24.957-157.394,16.946-113.027,63.578,38.924,40.911-54.242,93.317-126.973,71.422-44.495-13.395-86.379-7.43-108.955,8.092H749.214c4.9-11.389,2.4-24.778-10.781-38.628-38.924-40.911,54.213-93.3,126.943-71.406,82.9,24.957,157.424-16.963,113.057-63.594-38.925-40.911,54.212-93.3,126.943-71.406,82.9,24.956,157.423-16.963,113.057-63.594-38.924-40.911,54.213-93.3,126.943-71.406,82.9,24.956,157.424-16.963,113.057-63.594-38.924-40.911,54.213-93.3,126.943-71.406,82.9,24.956,157.423-16.963,113.057-63.594-38.925-40.911,54.213-93.3,126.943-71.406,82.9,24.956,157.423-16.963,113.057-63.594-38.924-40.911,54.213-93.3,126.943-71.406,38.409,11.563,74.855,8.656,98.672-2.307V519.025ZM2067.689,720.19c-61.643-1.679-104.075,33.089-68.027,70.977,38.924,40.911-54.242,93.317-126.973,71.422-82.9-24.956-157.394,16.946-113.027,63.578,38.925,40.911-54.242,93.317-126.972,71.422-82.9-24.956-157.394,16.946-113.027,63.578,38.924,40.911-54.242,93.317-126.973,71.422-82.9-24.956-157.394,16.946-113.027,63.578,38.924,40.911-54.242,93.317-126.973,71.422-82.9-24.956-157.394,16.946-113.027,63.578,38.925,40.911-54.242,93.317-126.973,71.422-82.9-24.957-157.394,16.946-113.027,63.578a32.872,32.872,0,0,1,7.324,12.014H850.9c10.481-32.124,78.407-59.412,134.473-42.534,82.9,24.957,157.423-16.963,113.057-63.594-38.924-40.911,54.213-93.3,126.943-71.406,82.9,24.957,157.424-16.963,113.057-63.594-38.924-40.911,54.213-93.3,126.943-71.406,82.9,24.956,157.423-16.963,113.057-63.594-38.924-40.911,54.213-93.3,126.943-71.406,82.9,24.956,157.424-16.963,113.057-63.594-38.924-40.911,54.212-93.3,126.943-71.406,82.9,24.956,157.423-16.963,113.057-63.594-35.2-36.993,37.577-83.184,105.615-75.542V731.825c-16.974,1.752-34.694.781-51.357-4.235a172.976,172.976,0,0,0-45-7.4Zm96.357,68.835c-47.934,6.518-75.579,36.856-44.385,69.642,38.925,40.911-54.242,93.317-126.972,71.422-82.9-24.956-157.394,16.946-113.027,63.578,38.924,40.911-54.242,93.317-126.973,71.422-20.463-6.16-53.13-8.575-74.766-5.521-47.256,6.672-65.8,40.158-38.262,69.1,38.924,40.911-54.242,93.317-126.973,71.422-82.9-24.956-157.394,16.946-113.027,63.578,38.925,40.911-54.242,93.317-126.973,71.422-82.9-24.957-157.394,16.946-113.027,63.578,38.924,40.911-54.242,93.317-126.973,71.422-44.5-13.395-86.379-7.43-108.955,8.092h305.478c4.9-11.389,2.4-24.778-10.781-38.628-38.925-40.911,54.212-93.3,126.943-71.406,51.45,15.489,110.981,5.059,122.842-21.522,5.43-12.17,1.166-30.562-9.785-42.072-38.924-40.911,54.212-93.3,126.943-71.406,82.9,24.956,157.424-16.963,113.057-63.594-38.924-40.911,54.213-93.3,126.943-71.406,82.9,24.956,157.424-16.963,113.057-63.594-38.924-40.911,54.213-93.3,126.943-71.406,38.409,11.563,74.855,8.656,98.672-2.307V789.025ZM2067.689,990.19c-61.643-1.679-104.075,33.089-68.027,70.977,38.924,40.911-54.242,93.317-126.973,71.422-82.9-24.956-157.394,16.946-113.027,63.578,38.925,40.911-54.242,93.317-126.972,71.422-82.9-24.956-157.394,16.946-113.027,63.578,38.924,40.911-54.242,93.317-126.973,71.422-82.9-24.957-157.394,16.946-113.027,63.578a32.876,32.876,0,0,1,7.324,12.014H1330.9c10.481-32.124,78.406-59.412,134.473-42.534,20.463,6.16,53.159,8.559,74.795,5.5,47.256-6.671,65.8-40.158,38.262-69.1-38.924-40.911,54.213-93.3,126.943-71.406,82.9,24.957,157.424-16.963,113.057-63.594-38.924-40.911,54.213-93.3,126.943-71.406,82.9,24.956,157.423-16.963,113.057-63.594-35.2-36.993,37.577-83.183,105.615-75.542v-24.686c-16.974,1.752-34.694.781-51.357-4.235a172.981,172.981,0,0,0-45-7.4Zm96.357,68.736c-2.089.187-4.193.371-6.123.643-47.256,6.672-65.8,40.158-38.262,69.1,38.925,40.911-54.242,93.317-126.972,71.422-82.9-24.956-157.394,16.946-113.027,63.578,38.924,40.911-54.242,93.317-126.973,71.422-82.9-24.956-157.394,16.947-113.027,63.578,38.925,40.911-54.242,93.317-126.972,71.422-44.5-13.395-86.379-7.43-108.955,8.091h305.479c4.9-11.389,2.4-24.778-10.781-38.628-38.924-40.911,54.213-93.3,126.943-71.406,20.463,6.16,53.159,8.558,74.795,5.5,47.256-6.671,65.8-40.158,38.262-69.1-38.924-40.911,54.213-93.3,126.943-71.405,38.409,11.563,74.855,8.656,98.672-2.307V1058.926Zm-96.357,201.264c-61.643-1.679-104.075,33.089-68.027,70.977,38.924,40.911-54.242,93.317-126.973,71.422-82.9-24.957-157.394,16.946-113.027,63.578a32.866,32.866,0,0,1,7.324,12.014h43.887c10.479-32.125,78.435-59.412,134.5-42.534,20.463,6.16,53.159,8.559,74.795,5.5,47.255-6.671,65.8-40.158,38.262-69.1-35.2-36.993,37.577-83.183,105.615-75.542v-24.686c-16.974,1.752-34.693.781-51.357-4.235A172.985,172.985,0,0,0,2067.689,1260.19Zm96.357,68.835c-47.934,6.518-75.579,36.856-44.385,69.642,38.925,40.911-54.242,93.317-126.972,71.422-44.495-13.395-86.379-7.43-108.955,8.092h280.312Z" transform="translate(0 0)" fill="#cc905d"/>
  </g>
</svg>
